<svg xmlns="http://www.w3.org/2000/svg" viewBox="0 0 400 100" width="400" height="100">
  <!-- All White Header Navigation Bar Logo Variant -->
  <g transform="translate(10, 10)">
    <!-- Connection Lines in Pure White -->
    <path d="M 40 15 L 70 35 L 55 75 L 25 75 L 10 35 Z" fill="none" stroke="#FFFFFF" stroke-width="2.8" stroke-opacity="0.9" />
    <path d="M 40 15 L 55 75 M 70 35 L 25 75 M 10 35 L 55 75" fill="none" stroke="#FFFFFF" stroke-width="2.2" stroke-opacity="0.8" />
    <path d="M 40 42 L 40 15 M 40 42 L 70 35 M 40 42 L 55 75 M 40 42 L 25 75 M 40 42 L 10 35" fill="none" stroke="#FFFFFF" stroke-width="1.8" stroke-opacity="0.95" />

    <!-- Nodes in Pure White -->
    <circle cx="40" cy="15" r="5.5" fill="#FFFFFF" />
    <circle cx="70" cy="35" r="5.5" fill="#FFFFFF" />
    <circle cx="55" cy="75" r="5.5" fill="#FFFFFF" />
    <circle cx="25" cy="75" r="5.5" fill="#FFFFFF" />
    <circle cx="10" cy="35" r="5.5" fill="#FFFFFF" />
    <circle cx="40" cy="42" r="6.5" fill="#FFFFFF" />
  </g>

  <!-- Pure White Header Typography -->
  <text x="100" y="52" font-family="-apple-system, BlinkMacSystemFont, 'Segoe UI', Roboto, Helvetica, Arial, sans-serif" font-weight="800" font-size="34" letter-spacing="1" fill="#FFFFFF">
    DL
  </text>
  <text x="155" y="52" font-family="-apple-system, BlinkMacSystemFont, 'Segoe UI', Roboto, Helvetica, Arial, sans-serif" font-weight="700" font-size="22" letter-spacing="0.5" fill="#FFFFFF">
    TEMPLATE
  </text>
  <text x="101" y="74" font-family="-apple-system, BlinkMacSystemFont, 'Segoe UI', Roboto, Helvetica, Arial, sans-serif" font-weight="600" font-size="11" letter-spacing="3" fill="#FFFFFF" fill-opacity="0.9">
    DEEP LEARNING BOILERPLATE
  </text>
</svg>
